PathFileType	4	(X/Y/Z)	c:/Users/goper/Files/vsCode/490R/osim_files/C10/C10_Fast_02.trc
DataRate	CameraRate	NumFrames	NumMarkers	Units                	OrigDataRate	OrigDataStartFrame	OrigNumFrames
250.00	250.00	12	36	mm	250.0	577	2307
                Frame#	Time	LPSIS			LASIS			LTH1			LTH2			LTH3			LTH4			LLFE			LMFE			LSH1			LSH2			LSH3			LSH4			LLMAL			LMMAL			LCAL			LMTP5			LTOE			LMTP1			RPSIS			RASIS			RTH1			RTH2			RTH3			RTH4			RLFE			RMFE			RSH1			RSH2			RSH3			RSH4			RLMAL			RMMAL			RCAL			RMTP1			RTOE			RMTP5		
		X1	Y1	Z1	X2	Y2	Z2	X3	Y3	Z3	X4	Y4	Z4	X5	Y5	Z5	X6	Y6	Z6	X7	Y7	Z7	X8	Y8	Z8	X9	Y9	Z9	X10	Y10	Z10	X11	Y11	Z11	X12	Y12	Z12	X13	Y13	Z13	X14	Y14	Z14	X15	Y15	Z15	X16	Y16	Z16	X17	Y17	Z17	X18	Y18	Z18	X19	Y19	Z19	X20	Y20	Z20	X21	Y21	Z21	X22	Y22	Z22	X23	Y23	Z23	X24	Y24	Z24	X25	Y25	Z25	X26	Y26	Z26	X27	Y27	Z27	X28	Y28	Z28	X29	Y29	Z29	X30	Y30	Z30	X31	Y31	Z31	X32	Y32	Z32	X33	Y33	Z33	X34	Y34	Z34	X35	Y35	Z35	X36	Y36	Z36

577	2.30400	1839.32239	1023.03723	257.81567	0.00000	0.00000	0.00000	0.00000	0.00000	0.00000	0.00000	0.00000	0.00000	0.00000	0.00000	0.00000	0.00000	0.00000	0.00000	1627.34644	484.72119	365.87515	0.00000	0.00000	0.00000	0.00000	0.00000	0.00000	0.00000	0.00000	0.00000	0.00000	0.00000	0.00000	0.00000	0.00000	0.00000	0.00000	0.00000	0.00000	0.00000	0.00000	0.00000	0.00000	0.00000	0.00000	0.00000	0.00000	0.00000	0.00000	0.00000	0.00000	0.00000	0.00000	0.00000	1835.09460	1035.30847	176.08345	0.00000	0.00000	0.00000	0.00000	0.00000	0.00000	0.00000	0.00000	0.00000	0.00000	0.00000	0.00000	0.00000	0.00000	0.00000	0.00000	0.00000	0.00000	0.00000	0.00000	0.00000	0.00000	0.00000	0.00000	0.00000	0.00000	0.00000	0.00000	0.00000	0.00000	1721.18384	710.34460	15.33096	0.00000	0.00000	0.00000	1712.39392	89.55315	142.34511	1709.28772	82.00262	232.95929	0.00000	0.00000	0.00000	1539.13831	64.36633	192.62711	1578.02393	39.93166	129.95276
578	2.30800	1834.24487	1024.20068	257.02203	0.00000	0.00000	0.00000	0.00000	0.00000	0.00000	0.00000	0.00000	0.00000	0.00000	0.00000	0.00000	0.00000	0.00000	0.00000	1616.74438	486.82306	365.58771	0.00000	0.00000	0.00000	0.00000	0.00000	0.00000	0.00000	0.00000	0.00000	0.00000	0.00000	0.00000	0.00000	0.00000	0.00000	0.00000	0.00000	0.00000	0.00000	0.00000	0.00000	0.00000	0.00000	0.00000	0.00000	0.00000	0.00000	0.00000	0.00000	0.00000	0.00000	0.00000	0.00000	1829.87805	1036.30933	175.43826	0.00000	0.00000	0.00000	0.00000	0.00000	0.00000	0.00000	0.00000	0.00000	0.00000	0.00000	0.00000	0.00000	0.00000	0.00000	0.00000	0.00000	0.00000	0.00000	0.00000	0.00000	0.00000	0.00000	0.00000	0.00000	0.00000	0.00000	0.00000	0.00000	0.00000	1718.33582	710.29840	15.51156	0.00000	0.00000	0.00000	1712.41797	89.55336	142.32272	1709.47412	82.08412	232.83827	0.00000	0.00000	0.00000	1538.36780	64.31752	192.83572	1578.03088	39.90734	129.93364
579	2.31200	1829.13159	1025.30078	256.32202	0.00000	0.00000	0.00000	0.00000	0.00000	0.00000	0.00000	0.00000	0.00000	0.00000	0.00000	0.00000	0.00000	0.00000	0.00000	1606.80286	489.34921	365.15179	0.00000	0.00000	0.00000	0.00000	0.00000	0.00000	0.00000	0.00000	0.00000	0.00000	0.00000	0.00000	0.00000	0.00000	0.00000	0.00000	0.00000	0.00000	0.00000	0.00000	0.00000	0.00000	0.00000	0.00000	0.00000	0.00000	0.00000	0.00000	0.00000	0.00000	0.00000	0.00000	0.00000	1824.70300	1037.25916	174.77103	0.00000	0.00000	0.00000	0.00000	0.00000	0.00000	0.00000	0.00000	0.00000	0.00000	0.00000	0.00000	0.00000	0.00000	0.00000	0.00000	0.00000	0.00000	0.00000	0.00000	0.00000	0.00000	0.00000	0.00000	0.00000	0.00000	0.00000	0.00000	0.00000	0.00000	1715.56323	710.20947	15.72276	0.00000	0.00000	0.00000	1712.41638	89.54406	142.34731	1709.51196	82.09496	232.74167	0.00000	0.00000	0.00000	1538.38586	64.32338	192.82878	1578.07104	39.91484	129.90138
580	2.31600	1824.05164	1026.40137	255.65225	0.00000	0.00000	0.00000	0.00000	0.00000	0.00000	0.00000	0.00000	0.00000	0.00000	0.00000	0.00000	0.00000	0.00000	0.00000	1596.61389	491.56732	364.81516	0.00000	0.00000	0.00000	0.00000	0.00000	0.00000	0.00000	0.00000	0.00000	0.00000	0.00000	0.00000	0.00000	0.00000	0.00000	0.00000	0.00000	0.00000	0.00000	0.00000	0.00000	0.00000	0.00000	0.00000	0.00000	0.00000	0.00000	0.00000	0.00000	0.00000	0.00000	0.00000	0.00000	1819.54126	1038.13196	174.11497	0.00000	0.00000	0.00000	0.00000	0.00000	0.00000	0.00000	0.00000	0.00000	0.00000	0.00000	0.00000	0.00000	0.00000	0.00000	0.00000	0.00000	0.00000	0.00000	0.00000	0.00000	0.00000	0.00000	0.00000	0.00000	0.00000	0.00000	0.00000	0.00000	0.00000	1712.69116	710.05530	16.01208	0.00000	0.00000	0.00000	1712.38245	89.50816	142.36772	1709.53418	82.11909	232.60085	0.00000	0.00000	0.00000	1538.14709	63.57270	192.81886	1578.09875	39.85527	129.94780
581	2.32000	1818.94495	1027.38184	255.02701	0.00000	0.00000	0.00000	0.00000	0.00000	0.00000	0.00000	0.00000	0.00000	0.00000	0.00000	0.00000	0.00000	0.00000	0.00000	1586.44092	493.70981	364.43433	0.00000	0.00000	0.00000	0.00000	0.00000	0.00000	0.00000	0.00000	0.00000	0.00000	0.00000	0.00000	0.00000	0.00000	0.00000	0.00000	0.00000	0.00000	0.00000	0.00000	0.00000	0.00000	0.00000	0.00000	0.00000	0.00000	0.00000	0.00000	0.00000	0.00000	0.00000	0.00000	0.00000	1814.30701	1038.88367	173.56604	0.00000	0.00000	0.00000	0.00000	0.00000	0.00000	0.00000	0.00000	0.00000	0.00000	0.00000	0.00000	0.00000	0.00000	0.00000	0.00000	0.00000	0.00000	1814.94666	456.05029	87.69846	0.00000	0.00000	0.00000	0.00000	0.00000	0.00000	0.00000	0.00000	0.00000	1709.86499	709.90552	16.32728	0.00000	0.00000	0.00000	1712.38550	89.51465	142.45535	1709.59424	82.13168	232.54826	0.00000	0.00000	0.00000	1538.48779	64.17215	192.87088	1578.09131	39.83549	129.93445
582	2.32400	1813.78589	1028.37439	254.44556	0.00000	0.00000	0.00000	0.00000	0.00000	0.00000	0.00000	0.00000	0.00000	0.00000	0.00000	0.00000	0.00000	0.00000	0.00000	1577.32178	496.24701	363.86276	0.00000	0.00000	0.00000	0.00000	0.00000	0.00000	0.00000	0.00000	0.00000	0.00000	0.00000	0.00000	0.00000	0.00000	0.00000	0.00000	0.00000	0.00000	0.00000	0.00000	0.00000	0.00000	0.00000	0.00000	0.00000	0.00000	0.00000	0.00000	0.00000	0.00000	0.00000	0.00000	0.00000	1809.10938	1039.54333	173.00125	0.00000	0.00000	0.00000	0.00000	0.00000	0.00000	0.00000	0.00000	0.00000	0.00000	0.00000	0.00000	0.00000	0.00000	0.00000	0.00000	0.00000	0.00000	1814.08240	455.89771	87.80527	0.00000	0.00000	0.00000	0.00000	0.00000	0.00000	0.00000	0.00000	0.00000	1707.06055	709.80511	16.57657	0.00000	0.00000	0.00000	1712.38611	89.54922	142.51825	1709.65173	82.14661	232.50874	0.00000	0.00000	0.00000	1538.46777	64.10040	192.89912	1575.74561	40.23868	129.18423
583	2.32800	1808.69153	1029.34644	253.91890	0.00000	0.00000	0.00000	0.00000	0.00000	0.00000	0.00000	0.00000	0.00000	0.00000	0.00000	0.00000	0.00000	0.00000	0.00000	1566.59668	498.01480	363.39911	0.00000	0.00000	0.00000	0.00000	0.00000	0.00000	0.00000	0.00000	0.00000	0.00000	0.00000	0.00000	0.00000	0.00000	0.00000	0.00000	0.00000	0.00000	0.00000	0.00000	0.00000	0.00000	0.00000	0.00000	0.00000	0.00000	0.00000	0.00000	0.00000	0.00000	0.00000	0.00000	0.00000	1803.94287	1040.14111	172.43840	0.00000	0.00000	0.00000	0.00000	0.00000	0.00000	0.00000	0.00000	0.00000	0.00000	0.00000	0.00000	0.00000	0.00000	0.00000	0.00000	0.00000	0.00000	1813.15454	455.77069	87.94564	0.00000	0.00000	0.00000	0.00000	0.00000	0.00000	0.00000	0.00000	0.00000	1704.25977	709.64264	16.81147	0.00000	0.00000	0.00000	1712.32764	89.54438	142.64536	1709.70911	82.12251	232.50017	0.00000	0.00000	0.00000	1538.46216	64.00926	192.86844	1575.70117	40.24090	129.18472
584	2.33200	1803.52441	1030.15283	253.47450	0.00000	0.00000	0.00000	0.00000	0.00000	0.00000	0.00000	0.00000	0.00000	0.00000	0.00000	0.00000	0.00000	0.00000	0.00000	1556.97449	500.21594	363.29584	1542.47888	489.36417	246.09259	0.00000	0.00000	0.00000	0.00000	0.00000	0.00000	0.00000	0.00000	0.00000	0.00000	0.00000	0.00000	0.00000	0.00000	0.00000	0.00000	0.00000	0.00000	0.00000	0.00000	0.00000	0.00000	0.00000	0.00000	0.00000	0.00000	0.00000	0.00000	0.00000	0.00000	1798.73132	1040.62988	171.95502	0.00000	0.00000	0.00000	0.00000	0.00000	0.00000	0.00000	0.00000	0.00000	0.00000	0.00000	0.00000	0.00000	0.00000	0.00000	0.00000	0.00000	0.00000	1812.15112	455.67755	88.10424	0.00000	0.00000	0.00000	0.00000	0.00000	0.00000	0.00000	0.00000	0.00000	1701.55029	709.54578	16.95971	0.00000	0.00000	0.00000	1712.32336	89.58574	142.71655	1709.75891	82.10193	232.47961	0.00000	0.00000	0.00000	1538.44934	63.92318	192.91945	1575.59058	40.25172	129.10579
585	2.33600	1798.40015	1030.89087	253.05048	0.00000	0.00000	0.00000	1638.93787	777.09485	424.90439	0.00000	0.00000	0.00000	1595.04114	737.20862	421.64407	0.00000	0.00000	0.00000	1547.39905	502.41974	362.96063	1528.10461	492.31894	246.03336	0.00000	0.00000	0.00000	0.00000	0.00000	0.00000	0.00000	0.00000	0.00000	1925.27979	194.49706	199.42258	0.00000	0.00000	0.00000	1667.09949	796.98462	431.22244	0.00000	0.00000	0.00000	1634.83813	425.53171	307.90909	1584.12097	421.69586	365.26395	0.00000	0.00000	0.00000	1793.55933	1040.98047	171.46954	0.00000	0.00000	0.00000	1714.01147	755.78137	10.37255	0.00000	0.00000	0.00000	0.00000	0.00000	0.00000	0.00000	0.00000	0.00000	0.00000	0.00000	0.00000	1811.11768	455.60907	88.17526	1642.77905	757.35938	17.95416	0.00000	0.00000	0.00000	0.00000	0.00000	0.00000	1698.68347	709.32471	17.17006	0.00000	0.00000	0.00000	1712.21838	89.56380	142.80359	1709.71619	82.05968	232.44194	0.00000	0.00000	0.00000	1538.43579	63.75952	192.88646	1575.56787	40.27475	129.12469
586	2.34000	1793.25464	1031.53076	252.66251	0.00000	0.00000	0.00000	1644.45227	775.84772	423.49429	1625.30371	734.38873	422.47198	0.00000	0.00000	0.00000	0.00000	0.00000	0.00000	1538.01135	504.56708	362.58600	1513.69495	495.69617	243.21880	0.00000	0.00000	0.00000	0.00000	0.00000	0.00000	0.00000	0.00000	0.00000	1924.90735	194.23880	199.46544	1698.37061	82.12145	314.16290	0.00000	0.00000	0.00000	0.00000	0.00000	0.00000	0.00000	0.00000	0.00000	0.00000	0.00000	0.00000	2253.13354	894.08563	388.10428	1788.38855	1041.24463	171.03941	0.00000	0.00000	0.00000	1710.67151	755.56366	10.86781	0.00000	0.00000	0.00000	0.00000	0.00000	0.00000	0.00000	0.00000	0.00000	0.00000	0.00000	0.00000	1809.93054	455.46976	88.27791	1639.77112	757.05640	17.80278	0.00000	0.00000	0.00000	0.00000	0.00000	0.00000	1695.82971	709.19983	17.35721	0.00000	0.00000	0.00000	1712.10486	89.58334	142.87846	1709.66943	82.06248	232.40169	0.00000	0.00000	0.00000	1538.37000	63.61502	192.85497	1575.52039	40.20644	129.03625
587	2.34400	1788.12305	1032.03699	252.39690	0.00000	0.00000	0.00000	1638.23340	776.98779	423.46591	1618.79895	735.73743	422.54388	0.00000	0.00000	0.00000	0.00000	0.00000	0.00000	1529.12891	506.74985	361.82748	1519.26147	495.47586	244.24342	0.00000	0.00000	0.00000	2246.19629	895.07526	387.52042	0.00000	0.00000	0.00000	0.00000	0.00000	0.00000	0.00000	0.00000	0.00000	1575.98804	44.71395	228.37202	1580.61670	24.74055	125.78400	0.00000	0.00000	0.00000	1653.80896	798.72253	430.42236	0.00000	0.00000	0.00000	1783.21985	1041.40857	170.69588	0.00000	0.00000	0.00000	1707.36340	755.51495	11.28807	0.00000	0.00000	0.00000	0.00000	0.00000	0.00000	0.00000	0.00000	0.00000	0.00000	0.00000	0.00000	1808.60559	455.37567	88.41460	1636.74817	756.75208	17.60128	0.00000	0.00000	0.00000	0.00000	0.00000	0.00000	1692.89648	709.07758	17.52698	0.00000	0.00000	0.00000	1711.99451	89.60110	142.96234	1709.61523	82.05448	232.35632	0.00000	0.00000	0.00000	1538.29749	63.47979	192.82388	1575.42798	40.23203	129.01164
588	2.34800	1782.97485	1032.45166	252.16051	0.00000	0.00000	0.00000	1632.04492	778.09955	423.47919	1612.43738	737.04718	422.62753	0.00000	0.00000	0.00000	0.00000	0.00000	0.00000	0.00000	0.00000	0.00000	1509.90601	497.82587	243.61919	1560.80078	423.41986	361.85507	0.00000	0.00000	0.00000	1605.31934	462.53949	364.87637	0.00000	0.00000	0.00000	1646.73474	83.81058	313.27341	0.00000	0.00000	0.00000	0.00000	0.00000	0.00000	1575.97510	44.54289	228.47450	0.00000	0.00000	0.00000	1580.62231	24.71324	125.88805	1778.10669	1041.47961	170.32779	0.00000	0.00000	0.00000	1704.04553	755.52911	11.63118	0.00000	0.00000	0.00000	0.00000	0.00000	0.00000	0.00000	0.00000	0.00000	0.00000	0.00000	0.00000	1807.30176	455.30643	88.50240	1633.68689	756.50989	17.45786	0.00000	0.00000	0.00000	0.00000	0.00000	0.00000	1689.93933	708.97839	17.65227	0.00000	0.00000	0.00000	1711.90979	89.63426	143.06825	1709.54541	82.04884	232.33759	0.00000	0.00000	0.00000	1538.25623	63.33773	192.85698	1575.36511	40.19582	128.98483
